<?xml version="1.0" encoding="UTF-8" standalone="no"?>
<!-- Created with Inkscape (http://www.inkscape.org/) -->

<svg
   width="649.31934mm"
   height="649.31934mm"
   viewBox="0 0 649.31934 649.31934"
   version="1.1"
   id="svg1"
   inkscape:version="1.4.3 (0d15f75, 2025-12-25)"
   sodipodi:docname="mlb-avatar-bee.svg"
   xmlns:inkscape="http://www.inkscape.org/namespaces/inkscape"
   xmlns:sodipodi="http://sodipodi.sourceforge.net/DTD/sodipodi-0.dtd"
   xmlns="http://www.w3.org/2000/svg"
   xmlns:svg="http://www.w3.org/2000/svg">
  <sodipodi:namedview
     id="namedview1"
     pagecolor="#ffffff"
     bordercolor="#000000"
     borderopacity="0.25"
     inkscape:showpageshadow="2"
     inkscape:pageopacity="0.0"
     inkscape:pagecheckerboard="0"
     inkscape:deskcolor="#d1d1d1"
     inkscape:document-units="mm"
     showguides="true"
     inkscape:zoom="0.125"
     inkscape:cx="2544"
     inkscape:cy="2216"
     inkscape:window-width="1920"
     inkscape:window-height="1178"
     inkscape:window-x="-6"
     inkscape:window-y="-6"
     inkscape:window-maximized="1"
     inkscape:current-layer="layer1" />
  <defs
     id="defs1" />
  <g
     inkscape:groupmode="layer"
     id="layer5"
     inkscape:label="Circle"
     transform="translate(-40.43277,-1.5389709)">
    <circle
       style="fill:#c6afe9;fill-opacity:1;stroke:none;stroke-width:154.584;stroke-dasharray:none;stroke-opacity:1"
       id="path2-3-2-8"
       cx="367.20908"
       cy="326.72775"
       r="310.90134" />
  </g>
  <g
     inkscape:groupmode="layer"
     id="layer4"
     inkscape:label="Colouring (non-fill)"
     transform="translate(-40.43277,-1.5389709)" />
  <g
     inkscape:label="Main linework"
     inkscape:groupmode="layer"
     id="layer1"
     transform="translate(-40.43277,-1.5389709)">
    <path
       style="fill:#ffeeaa;fill-opacity:1;stroke:#000000;stroke-width:9.86731;stroke-dasharray:none;stroke-opacity:1"
       d="m 426.58038,242.82722 c 53.53411,9.11436 110.03529,40.76591 126.59056,95.60864 12.39347,51.8085 -35.29957,104.88872 -87.6143,102.13204 -31.55339,-1.46093 -61.95865,-21.39831 -93.88211,-10.42492 -40.96479,7.73752 -84.45905,28.20515 -125.57257,9.87836 -27.54953,-10.81634 -41.96098,-40.38798 -41.12813,-68.87781 -2.08045,-35.4481 16.73994,-68.981 45.16701,-89.26979 36.2987,-28.07317 81.25687,-45.71072 127.60421,-43.83906 16.37913,0.14755 32.72187,1.89539 48.83533,4.79254 z"
       id="path47" />
    <path
       style="fill:#ffeeaa;fill-opacity:1;stroke:#000000;stroke-width:6.46857;stroke-dasharray:none;stroke-opacity:1"
       d="m 566.98374,322.06081 c 17.27415,-14.67646 24.2667,-22.83861 27.68076,-34.68336 3.85294,-7.02637 20.49201,28.07273 -21.93747,64.22033"
       id="path48"
       sodipodi:nodetypes="ccc" />
    <path
       style="fill:#c6afe9;fill-opacity:1;stroke:#000000;stroke-width:6.46857;stroke-dasharray:none;stroke-opacity:1"
       d="m 229.95487,279.30781 c -4.75209,-14.48783 -17.77831,-24.27116 -31.0361,-30.59851 -8.50973,-3.99095 -17.1532,-7.91851 -26.21555,-10.45839 -10.24768,-2.40408 -20.8641,-3.20886 -31.35929,-2.42813"
       id="path49" />
    <path
       style="fill:#c6afe9;fill-opacity:1;stroke:#000000;stroke-width:6.46857;stroke-dasharray:none;stroke-opacity:1"
       d="m 216.82732,285.05111 c -22.45776,-6.8599 -47.25419,-9.35824 -69.79098,-1.45944 -8.08703,2.88628 -15.66515,7.25058 -22.10183,12.94596"
       id="path51" />
    <path
       style="fill:#000000;fill-opacity:1;stroke:#000000;stroke-width:5.42422;stroke-dasharray:none;stroke-opacity:1"
       d="m 279.4089,262.05252 c 45.08767,50.2033 47.82689,149.46052 44.34801,177.6819 -0.76181,6.18007 39.82903,-9.11297 53.22655,-10.80147 9.30891,-76.00572 -2.80572,-136.90758 -40.7145,-186.14462 -19.00944,2.78729 -38.78956,8.20016 -56.86006,19.26419 z"
       id="path55"
       sodipodi:nodetypes="csccc" />
    <path
       style="fill:#000000;fill-opacity:1;stroke:#000000;stroke-width:5.42422;stroke-dasharray:none;stroke-opacity:1"
       d="m 434.98114,246.51699 c 25.13547,58.11538 -2.03334,156.54175 -0.0284,184.90597 0.65079,9.20709 44.46036,12.48717 53.22655,0.87439 9.30889,-76.00572 23.68254,-114.18311 -12.85023,-173.39625 -19.00944,2.78729 -22.27739,-23.44815 -40.34789,-12.38411 z"
       id="path55-4"
       sodipodi:nodetypes="csccc" />
    <path
       style="fill:#d5e5ff;fill-opacity:1;stroke:#000000;stroke-width:7.65813;stroke-dasharray:none;stroke-opacity:1"
       d="m 331.07372,308.35306 c -15.9586,-40.10247 -24.26651,-92.72605 3.64836,-129.45866 23.63486,-29.24762 68.54733,-47.71828 103.86291,-30.01944 36.83483,25.299 32.43835,76.31844 11.88056,110.51683 -22.88362,41.95899 -15.13589,-26.40333 27.36186,-21.31271 44.24541,1.2272 46.90768,71.91184 12.30384,92.1268 -25.57995,21.79723 -57.3272,9.81736 -86.13383,6.27217"
       id="path54"
       sodipodi:nodetypes="ccccccc" />
  </g>
  <g
     inkscape:groupmode="layer"
     id="layer3"
     inkscape:label="Decorative linework"
     transform="translate(-40.43277,-1.5389709)">
    <circle
       style="fill:#000000;fill-opacity:1;stroke:none;stroke-width:7.76636;stroke-dasharray:none;stroke-opacity:1"
       id="path2-3-2"
       cx="260.70499"
       cy="346.19888"
       r="15.619647" />
    <circle
       style="fill:#d35f5f;fill-opacity:1;stroke:#000000;stroke-width:5.03722;stroke-dasharray:none;stroke-opacity:1"
       id="path2-3-2-2"
       cx="-201.80348"
       cy="-179.03323"
       r="17.228966"
       transform="rotate(-161.80115)" />
    <path
       style="fill:#d35f5f;fill-opacity:1;stroke:#000000;stroke-width:2.87481;stroke-dasharray:none;stroke-opacity:1"
       d="m 130.49431,242.96372 c -3.02794,-1.38558 -6.60762,-6.13662 -6.22756,-9.70843"
       id="path7" />
    <circle
       style="fill:#d35f5f;fill-opacity:1;stroke:#000000;stroke-width:5.03722;stroke-dasharray:none;stroke-opacity:1"
       id="path2-3-2-2-4"
       cx="-205.92352"
       cy="-247.29816"
       r="17.228966"
       transform="rotate(-161.80115)" />
    <path
       style="fill:#d35f5f;fill-opacity:1;stroke:#000000;stroke-width:2.87481;stroke-dasharray:none;stroke-opacity:1"
       d="m 113.08804,309.10066 c -3.02794,-1.38558 -6.60762,-6.13661 -6.22755,-9.70843"
       id="path7-9" />
  </g>
</svg>
