<?xml version="1.0" encoding="UTF-8" standalone="no"?>
<!-- Created with Inkscape (http://www.inkscape.org/) -->

<svg
   width="649.31934mm"
   height="649.31934mm"
   viewBox="0 0 649.31934 649.31934"
   version="1.1"
   id="svg1"
   inkscape:version="1.4.3 (0d15f75, 2025-12-25)"
   sodipodi:docname="mlb-avatar-apple.svg"
   xmlns:inkscape="http://www.inkscape.org/namespaces/inkscape"
   xmlns:sodipodi="http://sodipodi.sourceforge.net/DTD/sodipodi-0.dtd"
   xmlns="http://www.w3.org/2000/svg"
   xmlns:svg="http://www.w3.org/2000/svg">
  <sodipodi:namedview
     id="namedview1"
     pagecolor="#ffffff"
     bordercolor="#000000"
     borderopacity="0.25"
     inkscape:showpageshadow="2"
     inkscape:pageopacity="0.0"
     inkscape:pagecheckerboard="0"
     inkscape:deskcolor="#d1d1d1"
     inkscape:document-units="mm"
     showguides="true"
     inkscape:zoom="0.25000001"
     inkscape:cx="1240"
     inkscape:cy="1363.9999"
     inkscape:window-width="1920"
     inkscape:window-height="1178"
     inkscape:window-x="-6"
     inkscape:window-y="-6"
     inkscape:window-maximized="1"
     inkscape:current-layer="layer3" />
  <defs
     id="defs1" />
  <g
     inkscape:groupmode="layer"
     id="layer5"
     inkscape:label="Circle"
     transform="translate(-40.43277,-1.5389709)">
    <circle
       style="fill:#afe9af;fill-opacity:1;stroke:none;stroke-width:154.584;stroke-dasharray:none;stroke-opacity:1"
       id="path2-3-2-8"
       cx="367.20908"
       cy="326.72775"
       r="310.90134" />
  </g>
  <g
     inkscape:groupmode="layer"
     id="layer4"
     inkscape:label="Colouring (non-fill)"
     transform="translate(-40.43277,-1.5389709)" />
  <g
     inkscape:label="Main linework"
     inkscape:groupmode="layer"
     id="layer1"
     transform="translate(-40.43277,-1.5389709)">
    <path
       id="path1"
       style="fill:#ff8080;stroke:#000000;stroke-width:11.8;stroke-dasharray:none"
       d="m 224.28572,256.68048 c -22.54664,23.7129 -31.00533,62.59249 -23.46652,100.1444 1.83887,5.81869 3.80444,11.61165 5.90388,17.36321 7.41851,-4.68899 20.41834,-2.49586 24.47381,4.19676 3.63104,5.27272 1.93249,11.87271 2.18912,17.51558 3.00283,1.73789 13.18574,4.50231 15.47201,11.64939 2.32122,7.46745 1.37317,10.20551 1.28976,18.6611 4.53097,4.66064 9.71332,16.13502 6.17014,22.50342 -1.21684,2.02064 -4.17428,4.08362 -6.48691,6.11492 8.36154,9.79831 17.87356,18.62564 27.59483,27.03535 17.97372,18.33321 49.87034,15.93393 61.02865,10.78391 20.8837,-4.48971 26.10388,-1.86098 46.86078,1.95606 33.89898,-0.64752 59.06121,-33.32057 66.365,-40.49828 11.13673,-13.35537 40.41706,-52.418 55.95297,-94.88093 7.12472,-22.1494 10.81813,-60.39852 -10.19315,-88.33384 -34.28375,-42.08139 -105.60192,-30.9446 -138.84485,12.58686 -3.66251,4.00498 -1.25946,-6.76035 -2.35136,-11.94389 -0.80363,-21.74058 -17.47674,-40.72978 -38.63336,-45.12499 -16.51269,-3.80733 -68.85422,0.29119 -93.3248,30.27097 z"
       sodipodi:nodetypes="ccccccccccccccccccc" />
    <path
       style="fill:#deaa87;stroke:#000000;stroke-width:5.915;stroke-dasharray:none;stroke-opacity:1"
       d="m 375.69289,146.61795 c -1.98211,-1.94476 -2.02904,-9.23618 2.98355,-4.9592 5.13458,4.36176 14.50517,-1.11929 17.91493,4.02761 -10.11235,6.35989 -10.93566,54.61598 -17.8521,82.09784 -5.1284,6.77835 -5.68951,14.19774 -8.4143,17.2742 7.2689,-35.52687 8.93632,-67.2483 5.36792,-98.44045 z"
       id="path2"
       sodipodi:nodetypes="cccccc" />
  </g>
  <g
     inkscape:groupmode="layer"
     id="layer3"
     inkscape:label="Decorative linework"
     transform="translate(-40.43277,-1.5389709)">
    <path
       style="fill:#aade87;stroke:#000000;stroke-width:7.5;stroke-dasharray:none;stroke-opacity:1"
       d="m 441.97891,174.07872 c 16.66557,-8.1667 31.34444,1.7084 47.72174,-7.48704 8.67815,-3.0141 15.25145,-9.69182 21.74873,-15.41754 5.12287,-0.62491 4.18186,5.30315 3.82634,8.8153 -2.12375,11.75362 -8.75777,22.00005 -14.46752,32.27114 -9.31399,13.76709 -24.1622,22.60043 -39.05152,29.2282 -8.7334,2.3132 -75.24238,25.09908 -76.09382,15.25194 2.40716,-6.52976 6.95927,-12.10467 10.89996,-17.79867 13.32235,-20.31983 22.57001,-31.13483 39.81837,-41.77425 1.82178,-1.10706 3.68952,-2.13862 5.59772,-3.08908 z"
       id="path4"
       sodipodi:nodetypes="cccccccccc" />
    <path
       style="fill:#aade87;stroke:#000000;stroke-width:5.5;stroke-dasharray:none;stroke-opacity:1"
       d="m 399.71202,231.88473 c 6.50656,-8.96623 15.01647,-17.25307 26.30238,-19.43048 9.32806,-1.74317 18.95065,-1.86552 27.91845,-5.39029 6.08475,-3.3407 12.42347,-6.50823 17.87665,-10.89444 l 0.68802,-0.61942"
       id="path5" />
  </g>
</svg>
