<?xml version="1.0" encoding="UTF-8" standalone="no"?>
<!-- Created with Inkscape (http://www.inkscape.org/) -->

<svg
   width="649.31934mm"
   height="649.31934mm"
   viewBox="0 0 649.31934 649.31934"
   version="1.1"
   id="svg1"
   sodipodi:docname="mlb-avatar-robot.svg"
   inkscape:version="1.4.3 (0d15f75, 2025-12-25)"
   xmlns:inkscape="http://www.inkscape.org/namespaces/inkscape"
   xmlns:sodipodi="http://sodipodi.sourceforge.net/DTD/sodipodi-0.dtd"
   xmlns="http://www.w3.org/2000/svg"
   xmlns:svg="http://www.w3.org/2000/svg">
  <sodipodi:namedview
     id="namedview1"
     pagecolor="#ffffff"
     bordercolor="#000000"
     borderopacity="0.25"
     inkscape:showpageshadow="2"
     inkscape:pageopacity="0.0"
     inkscape:pagecheckerboard="0"
     inkscape:deskcolor="#d1d1d1"
     inkscape:document-units="mm"
     inkscape:zoom="0.38058444"
     inkscape:cx="1227.0602"
     inkscape:cy="1227.0602"
     inkscape:window-width="1920"
     inkscape:window-height="1178"
     inkscape:window-x="-6"
     inkscape:window-y="-6"
     inkscape:window-maximized="1"
     inkscape:current-layer="svg1" />
  <defs
     id="defs1" />
  <g
     id="layer5"
     transform="translate(-40.43277,-1.5389709)">
    <circle
       style="fill:#ff9955;fill-opacity:1;stroke:none;stroke-width:154.584;stroke-dasharray:none;stroke-opacity:1"
       id="path2-3-2-8"
       cx="367.20908"
       cy="326.72775"
       r="310.90134" />
  </g>
  <g
     id="layer4"
     transform="translate(-40.43277,-1.5389709)">
    <path
       style="fill:#d35f5f;fill-opacity:1;stroke:none;stroke-width:6.61526;stroke-dasharray:none;stroke-opacity:1"
       d="m 581.59207,351.84275 5.32079,42.31294 -3.54719,35.47193 -5.57417,26.0972 26.60395,-21.53653 12.92191,-32.43148 -4.56067,-18.2427 -13.9354,-21.53652 z"
       id="path9" />
    <path
       style="fill:#d35f5f;fill-opacity:1;stroke:none;stroke-width:6.61526;stroke-dasharray:none;stroke-opacity:1"
       d="m 155.87041,356.46479 -5.32079,42.31294 3.54719,35.47193 7.85449,20.77641 -21.78989,-19.50956 -20.0163,-29.13766 4.56068,-18.2427 13.9354,-21.53652 z"
       id="path9-6" />
    <path
       style="fill:#ffffff;fill-opacity:1;stroke:none;stroke-width:6.61526;stroke-dasharray:none;stroke-opacity:1"
       d="m 163.06661,345.08258 -11.10794,38.34032 2.50824,35.1154 9.67466,37.62366 41.72105,14.2024 -12.33877,-44.65963 -2.86657,-54.10642 3.58322,-44.07342 z"
       id="path10" />
    <path
       style="fill:#ffffff;fill-opacity:1;stroke:none;stroke-width:6.61526;stroke-dasharray:none;stroke-opacity:1"
       d="m 545.03632,330.03312 6.80808,34.04045 1.43329,52.67313 -11.82459,55.53968 34.04045,-16.48274 12.18291,-48.37327 -2.50824,-39.41526 -5.01648,-19.34931 z"
       id="path11" />
  </g>
  <path
     style="fill:#e6e6e6;fill-opacity:1;stroke:#000000;stroke-width:6.43957;stroke-dasharray:none;stroke-opacity:1"
     d="m 315.90796,232.42995 c -8.69732,-6.59045 -20.89928,-17.39563 -16.56528,-23.59673 0.3673,-3.2114 27.69732,-7.80681 39.27615,-10.58521 6.04076,-0.0595 -7.73485,-17.75073 -11.98188,-24.66414 -5.9002,-8.02908 -19.01162,-20.20992 -8.43238,-24.37494 12.38298,-2.67183 37.69522,-2.88077 37.91228,-7.8197 0.89989,-8.59902 -0.55499,-13.66498 1.82451,-16.08496 0.63575,-0.64655 8.31088,0.14628 9.3293,-0.5353 4.85961,5.9459 2.55001,17.47198 2.6833,26.25085 -1.55455,11.41278 -34.15444,4.90108 -32.86142,10.07936 9.2599,11.75526 29.70025,36.4537 28.10377,41.87725 -1.58312,11.13703 -14.90798,8.53964 -22.92021,9.0939 -6.47017,0.69544 -18.97906,-0.2736 -11.12965,8.89906 2.8786,4.11029 12.57855,11.38466 12.15807,13.57572 -9.37717,-1.02421 -25.8385,-0.93455 -27.39656,-2.11516 z"
     id="path6" />
  <path
     style="fill:#999999;fill-opacity:1;stroke:#000000;stroke-width:6.61525;stroke-dasharray:none;stroke-opacity:1"
     d="m 234.42985,267.22135 c 8.31526,-18.03886 21.72849,-31.78161 41.64639,-35.78097 33.16174,-3.60566 55.30161,-4.8162 89.77302,-1.61894 25.61731,2.41882 33.49412,14.02457 41.92955,34.38408"
     id="path8" />
  <path
     style="fill:#e6e6e6;stroke:#000000;stroke-width:9.96205;stroke-dasharray:none;stroke-opacity:1"
     d="m 193.7294,512.03047 c 15.63449,11.29759 73.33585,15.01819 116.88851,15.64524 54.50017,-0.22024 120.70625,0.67843 153.78407,-19.24666 22.56641,-18.21887 31.44402,-41.79205 37.88546,-65.61148 9.47212,-42.75654 13.3962,-90.86179 -4.88635,-132.18573 -7.67263,-17.85716 -24.34761,-34.72034 -49.24743,-39.32454 -55.70019,-14.20747 -115.70788,-14.07793 -173.59612,-10.44159 -32.32897,2.72256 -66.00934,6.82213 -94.33157,19.57141 -22.691,17.41831 -24.80078,43.69137 -28.53132,66.76354 -8.27488,80.48031 23.28582,149.75146 42.03475,164.82981 z"
     id="path1-2" />
  <path
     style="fill:none;stroke:#000000;stroke-width:3.83055;stroke-dasharray:none;stroke-opacity:1"
     d="m 207.96481,499.74926 c 11.1826,13.04426 63.28129,13.25175 103.72791,13.90386 48.94312,-0.19779 108.77008,2.39602 137.37295,-17.21114 21.48281,-14.72638 31.49234,-39.32079 37.27699,-60.71151 8.50631,-38.39692 9.50652,-79.88022 -6.91189,-116.99063 -6.89028,-16.03636 -21.86503,-31.18012 -44.22596,-35.31486 -50.02079,-12.75882 -103.90987,-12.64248 -155.89562,-9.37691 -29.03257,2.44495 -59.27877,6.12651 -84.71316,17.57583 -20.37733,15.64227 -22.272,39.23644 -25.62216,59.95607 -7.43113,72.27423 22.15373,134.62839 38.99094,148.16929 z"
     id="path1-2-0" />
  <circle
     style="fill:#000000;fill-opacity:1;stroke:none;stroke-width:11.3423;stroke-dasharray:none;stroke-opacity:1"
     id="path2-8"
     cx="260.49768"
     cy="388.90417"
     r="22.811609" />
  <circle
     style="fill:#000000;fill-opacity:1;stroke:none;stroke-width:11.3423;stroke-dasharray:none;stroke-opacity:1"
     id="path2-3-2"
     cx="394.85037"
     cy="387.18542"
     r="22.811609" />
  <path
     style="fill:none;fill-opacity:1;stroke:#000000;stroke-width:11.3423;stroke-dasharray:none;stroke-opacity:1"
     d="m 503.85397,325.63031 c 35.02399,19.16526 71.24072,39.60461 72.26025,72.37149 -1.83327,42.62688 -52.04978,61.45425 -84.24765,78.54962"
     id="path4-8-6" />
  <path
     style="fill:none;fill-opacity:1;stroke:#000000;stroke-width:11.3423;stroke-dasharray:none;stroke-opacity:1"
     d="m 537.716,346.34392 c 14.49522,38.89234 7.8965,84.55373 -4.09439,108.18647"
     id="path4" />
  <path
     style="fill:none;fill-opacity:1;stroke:#000000;stroke-width:11.3423;stroke-dasharray:none;stroke-opacity:1"
     d="m 154.87642,325.82431 c -35.02399,19.16526 -71.24073,39.60462 -72.26025,72.3715 1.83326,42.62689 56.82035,61.93025 89.01822,79.02562"
     id="path4-8-6-9" />
  <path
     style="fill:none;fill-opacity:1;stroke:#000000;stroke-width:11.3423;stroke-dasharray:none;stroke-opacity:1"
     d="m 121.01439,346.53792 c -14.49521,38.89235 -7.97071,83.18721 4.02019,106.81995"
     id="path4-2" />
  <circle
     style="fill:#d35f5f;fill-opacity:1;stroke:#000000;stroke-width:7.56415;stroke-dasharray:none;stroke-opacity:1"
     id="path2-3-2-2"
     cx="366.86139"
     cy="107.57997"
     r="25.871925" />
  <path
     style="fill:#d35f5f;fill-opacity:1;stroke:#000000;stroke-width:4.31696;stroke-dasharray:none;stroke-opacity:1"
     d="m 369.79773,91.02949 c 4.96929,0.556536 12.30402,5.655197 13.43701,10.92877"
     id="path7" />
</svg>
