<?xml version="1.0" encoding="UTF-8" standalone="no"?>
<!-- Created with Inkscape (http://www.inkscape.org/) -->

<svg
   width="649.31934mm"
   height="649.31934mm"
   viewBox="0 0 649.31934 649.31934"
   version="1.1"
   id="svg1"
   inkscape:version="1.4.3 (0d15f75, 2025-12-25)"
   sodipodi:docname="mlb-avatar-sun.svg"
   xmlns:inkscape="http://www.inkscape.org/namespaces/inkscape"
   xmlns:sodipodi="http://sodipodi.sourceforge.net/DTD/sodipodi-0.dtd"
   xmlns="http://www.w3.org/2000/svg"
   xmlns:svg="http://www.w3.org/2000/svg">
  <sodipodi:namedview
     id="namedview1"
     pagecolor="#ffffff"
     bordercolor="#000000"
     borderopacity="0.25"
     inkscape:showpageshadow="2"
     inkscape:pageopacity="0.0"
     inkscape:pagecheckerboard="0"
     inkscape:deskcolor="#d1d1d1"
     inkscape:document-units="mm"
     showguides="true"
     inkscape:zoom="0.125"
     inkscape:cx="-727.99998"
     inkscape:cy="975.99997"
     inkscape:window-width="1920"
     inkscape:window-height="1178"
     inkscape:window-x="-6"
     inkscape:window-y="-6"
     inkscape:window-maximized="1"
     inkscape:current-layer="layer5" />
  <defs
     id="defs1" />
  <g
     inkscape:groupmode="layer"
     id="layer5"
     inkscape:label="Circle"
     transform="translate(-40.43277,-1.5389709)">
    <circle
       style="fill:#80b3ff;fill-opacity:1;stroke:none;stroke-width:154.584;stroke-dasharray:none;stroke-opacity:1"
       id="path2-3-2-8"
       cx="367.20908"
       cy="326.72775"
       r="310.90134" />
  </g>
  <g
     inkscape:groupmode="layer"
     id="layer4"
     inkscape:label="Colouring (non-fill)"
     transform="translate(-40.43277,-1.5389709)" />
  <g
     inkscape:label="Main linework"
     inkscape:groupmode="layer"
     id="layer1"
     transform="translate(-40.43277,-1.5389709)">
    <path
       style="fill:#ffe680;fill-opacity:1;stroke:#000000;stroke-width:5.9;stroke-dasharray:none;stroke-opacity:1"
       d="m 361.91529,203.00594 c 7.32041,-7.67789 15.82636,-26.39086 17.40237,-28.14639 11.47937,-20.29315 18.12904,-41.4223 32.7689,-59.6677 9.23189,-10.80327 19.53118,-26.309689 33.16143,-31.855946 30.17848,-14.389351 2.33307,16.396564 5.4533,56.339256 6.0401,32.00203 -2.61344,54.66769 -6.24742,81.74356 -9.29076,11.24073 -24.92905,-2.62243 -37.09882,-2.56733 -11.76302,-4.89739 -22.00743,-12.46079 -33.95647,-17.07443 -3.77681,-1.29555 -8.1139,-1.0331 -11.48329,1.22898 z"
       id="path15"
       sodipodi:nodetypes="ccccccccc" />
    <path
       style="fill:#ffe680;fill-opacity:1;stroke:#000000;stroke-width:5.9;stroke-dasharray:none;stroke-opacity:1"
       d="m 441.39131,232.88694 c 23.23335,-12.52825 36.13894,-16.86931 62.22873,-19.86674 10.9632,-1.7918 26.10231,-2.4486 46.08147,-6.95834 9.11652,-1.54306 15.21718,-9.48483 23.72748,-12.31901 7.71663,-0.49086 8.17872,10.53083 5.31293,15.56199 -4.19669,9.28453 -13.22138,14.87645 -19.97005,22.1269 -6.03616,5.80172 -11.71051,11.97064 -18.57342,16.8205 -12.30224,10.25863 -23.92421,21.3048 -36.01656,31.80224 -5.91908,5.36576 -12.50398,10.53417 -20.43058,12.42678 -13.22722,-12.02175 -14.98441,-31.04955 -24.67467,-45.36242 -2.43288,-7.10814 -7.28656,-12.49169 -14.45163,-14.79397 -2.65409,-1.61088 -5.11566,-4.33768 -4.73042,-7.66983"
       id="path16"
       sodipodi:nodetypes="cccccccccccc" />
    <path
       style="fill:#ffe680;fill-opacity:1;stroke:#000000;stroke-width:5.9;stroke-dasharray:none;stroke-opacity:1"
       d="m 485.58184,296.39071 c 15.03589,11.9037 33.31657,18.6057 51.56672,23.7393 16.43746,6.8245 35.64901,11.97397 50.84138,16.51568 18.57772,6.34206 32.67279,23.08301 8.26948,18.42421 -12.95508,-1.11649 -34.3382,0.63293 -47.01058,8.6572 -25.84468,13.19442 -45.33247,14.71579 -66.47897,18.62326 -9.01653,0.58065 1.2578,-9.87361 2.82636,-16.43114 1.58724,-26.61857 5.50084,-53.34001 -1.51109,-79.25713"
       id="path17"
       sodipodi:nodetypes="cccccccc" />
    <path
       style="fill:#ffe680;fill-opacity:1;stroke:#000000;stroke-width:5.9;stroke-dasharray:none;stroke-opacity:1"
       d="m 480.46532,386.19328 c 21.56168,23.04095 41.70831,52.19447 62.79664,75.56254 11.76109,9.85013 19.42995,51.48822 -8.99967,18.66883 -28.34413,-20.91899 -69.91031,-25.51174 -98.5116,-30.7893 -29.55362,-6.4772 24.98745,-32.15067 29.22325,-46.54591 4.28341,-4.38344 8.65986,-18.5821 15.49138,-16.89616 z"
       id="path18"
       sodipodi:nodetypes="cccccc" />
    <path
       style="fill:#ffe680;fill-opacity:1;stroke:#000000;stroke-width:5.9;stroke-dasharray:none;stroke-opacity:1"
       d="m 426.58378,443.81657 c -2.08373,34.51764 3.13325,76.55728 11.6779,102.29007 8.4903,19.1856 15.28458,46.26192 -9.7213,17.82037 -16.43526,-16.91045 -31.91823,-45.73173 -50.11844,-66.94142 -7.15673,-9.67993 -30.86772,-30.34855 -6.90054,-35.22783 18.37546,-9.53357 36.79455,-20.00265 56.55908,-26.17309"
       id="path19"
       sodipodi:nodetypes="cccccc" />
    <path
       style="fill:#ffe680;fill-opacity:1;stroke:#000000;stroke-width:5.9;stroke-dasharray:none;stroke-opacity:1"
       d="m 348.00653,459.53202 c -6.01841,13.25414 -11.89196,26.73519 -20.4102,38.60126 -7.75206,16.78857 -24.73964,22.4767 -31.38193,45.15498 -3.37572,12.29787 -3.2163,20.84089 -12.87073,26.13049 -7.67641,2.65146 -7.66377,-12.35632 -9.417,-17.4458 -8.21092,-34.65909 -5.10522,-95.11044 -2.18148,-106.0929 1.44677,-7.26771 -1.15258,-18.38487 7.52776,-19.91041 6.25362,1.37733 10.3902,7.23219 16.58896,9.14055 14.73251,7.68565 29.17404,16.2036 45.05916,21.3439 6.14708,2.69876 12.14782,5.81946 17.56243,9.81314"
       id="path20"
       sodipodi:nodetypes="cccccccccc" />
    <path
       style="fill:#ffe680;fill-opacity:1;stroke:#000000;stroke-width:5.9;stroke-dasharray:none;stroke-opacity:1"
       d="m 263.44247,420.5644 c -20.48708,5.03814 -36.61476,12.52073 -59.44974,19.81447 -25.42004,9.32522 -43.24163,8.9662 -57.96896,21.00903 -6.41055,7.13501 -17.9036,15.3677 -10.66609,-6.41546 31.15802,-59.46949 75.39434,-93.1494 77.54809,-95.84938 17.42644,-18.51457 25.29542,-19.17025 29.25045,-1.73489 4.85589,14.78639 9.45664,37.93674 18.12335,50.60714 3.22556,3.21247 1.19136,18.80878 9.14973,12.56906"
       id="path21"
       sodipodi:nodetypes="cccccccc" />
    <path
       style="fill:#ffe680;fill-opacity:1;stroke:#000000;stroke-width:5.9;stroke-dasharray:none;stroke-opacity:1"
       d="m 233.50827,331.72937 c -14.17638,-8.20613 -26.71731,-16.55149 -43.29457,-23.35972 -14.89375,-6.53234 -32.96882,-13.68671 -48.17584,-19.54837 -15.93037,-6.14048 -22.62779,-11.07143 -29.41795,-19.23184 -6.10435,-7.33621 1.04928,-11.64249 11.21689,-6.82833 12.47991,5.13289 45.85415,4.17998 64.38445,1.45882 15.40977,-1.76041 28.00461,-11.97505 43.40438,-14.72092 8.08668,-0.96073 17.62098,-2.80428 26.11862,0.30818 5.94245,3.27459 3.45188,11.03715 1.39679,16.0013 -5.57787,15.15396 -11.30006,30.44641 -13.12274,46.60059 -1.41414,7.93884 -3.19589,15.81462 -4.27813,23.81042"
       id="path22"
       sodipodi:nodetypes="ccssccccccc" />
    <path
       style="fill:#ffe680;fill-opacity:1;stroke:#000000;stroke-width:5.9;stroke-dasharray:none;stroke-opacity:1"
       d="m 264.19082,242.50918 c -0.3898,-27.38164 -15.43566,-52.16372 -15.30627,-79.68912 -0.9825,-23.46132 -0.85608,-45.79792 -14.98818,-67.333934 -13.57467,-23.582478 9.72558,-13.690497 37.70684,20.772994 12.35473,14.39648 25.60297,27.81944 36.42449,43.49578 9.40587,14.2316 26.4085,22.53579 33.30952,38.4093 -17.0294,13.3716 -39.88201,17.05318 -56.49284,31.22932 -4.07759,3.44707 -7.9374,7.18712 -12.42166,10.12224"
       id="path23"
       sodipodi:nodetypes="cccccccc" />
    <circle
       style="fill:#ffe680;fill-opacity:1;stroke:#000000;stroke-width:7.88278;stroke-dasharray:none;stroke-opacity:1"
       id="path12"
       cx="360.72858"
       cy="330.815"
       r="131.02232" />
  </g>
  <g
     inkscape:groupmode="layer"
     id="layer3"
     inkscape:label="Decorative linework"
     transform="translate(-40.43277,-1.5389709)">
    <circle
       style="fill:#000000;fill-opacity:1;stroke:none;stroke-width:10.1161;stroke-dasharray:none;stroke-opacity:1"
       id="path2-8"
       cx="302.92389"
       cy="325.24634"
       r="20.345442" />
    <circle
       style="fill:#000000;fill-opacity:1;stroke:none;stroke-width:10.1161;stroke-dasharray:none;stroke-opacity:1"
       id="path2-3-2"
       cx="414.28497"
       cy="323.71341"
       r="20.345442" />
    <path
       style="fill:#ffe680;fill-opacity:1;stroke:#000000;stroke-width:4.30001;stroke-dasharray:none;stroke-opacity:1"
       d="m 391.00568,189.26085 c 6.29583,-12.74907 12.60173,-25.49318 18.9177,-38.23229"
       id="path24" />
    <path
       style="fill:#ffe680;fill-opacity:1;stroke:#000000;stroke-width:4.30001;stroke-dasharray:none;stroke-opacity:1"
       d="m 416.93484,194.68481 c 2.99861,-7.9816 5.99723,-15.96319 8.99584,-23.94479"
       id="path25" />
    <path
       style="fill:#ffe680;fill-opacity:1;stroke:#000000;stroke-width:4.30001;stroke-dasharray:none;stroke-opacity:1"
       d="m 490.75359,257.65564 c 9.88062,-8.63981 19.75839,-17.28287 29.63333,-25.92917"
       id="path26" />
    <path
       style="fill:#ffe680;fill-opacity:1;stroke:#000000;stroke-width:4.30001;stroke-dasharray:none;stroke-opacity:1"
       d="m 501.86609,352.90563 c 9.7176,-3.30421 19.41915,-6.65563 29.10417,-10.05416"
       id="path28" />
    <path
       style="fill:#ffe680;fill-opacity:1;stroke:#000000;stroke-width:4.30001;stroke-dasharray:none;stroke-opacity:1"
       d="m 477.37401,410.2528 c 10.96699,12.14304 21.90316,24.31392 32.80833,36.5125"
       id="path30" />
    <path
       style="fill:#ffe680;fill-opacity:1;stroke:#000000;stroke-width:4.30001;stroke-dasharray:none;stroke-opacity:1"
       d="m 417.65338,484.7745 c -7.64695,14.20494 7.45228,27.43624 5.29167,41.80416"
       id="path32" />
    <path
       style="fill:#ffe680;fill-opacity:1;stroke:#000000;stroke-width:4.30001;stroke-dasharray:none;stroke-opacity:1"
       d="m 388.02005,478.42449 c 4.9393,7.93725 9.87819,15.87475 14.81667,23.8125"
       id="path33" />
    <path
       style="fill:#ffe680;fill-opacity:1;stroke:#000000;stroke-width:4.30001;stroke-dasharray:none;stroke-opacity:1"
       d="m 313.11961,476.92779 c -8.42148,12.4361 -13.71879,15.41922 -20.19362,31.77109"
       id="path34"
       sodipodi:nodetypes="cc" />
    <path
       style="fill:#ffe680;fill-opacity:1;stroke:#000000;stroke-width:4.30001;stroke-dasharray:none;stroke-opacity:1"
       d="m 227.74219,403.70563 c -5.82083,2.64583 -11.64167,5.29167 -17.4625,7.9375"
       id="path36" />
    <path
       style="fill:#ffe680;fill-opacity:1;stroke:#000000;stroke-width:4.30001;stroke-dasharray:none;stroke-opacity:1"
       d="m 225.86674,270.97558 c -15.47828,-1.042 -27.77977,12.79524 -43.39166,10.58334"
       id="path38" />
    <path
       style="fill:#ffe680;fill-opacity:1;stroke:#000000;stroke-width:4.30001;stroke-dasharray:none;stroke-opacity:1"
       d="m 221.63341,293.72975 c -5.46806,0 -10.93611,0 -16.40417,0"
       id="path39" />
    <path
       style="fill:#ffe680;fill-opacity:1;stroke:#000000;stroke-width:4.30001;stroke-dasharray:none;stroke-opacity:1"
       d="m 276.07794,198.20739 c -16.63353,-14.58777 -1.93163,-38.8073 -11.64167,-56.09167"
       id="path40" />
    <path
       style="fill:#ffe680;fill-opacity:1;stroke:#000000;stroke-width:4.30001;stroke-dasharray:none;stroke-opacity:1"
       d="m 295.65711,180.74489 c -4.05695,-4.05694 -8.11389,-8.11389 -12.17084,-12.17083"
       id="path41" />
    <path
       style="fill:#ffe680;fill-opacity:1;stroke:#000000;stroke-width:4.30001;stroke-dasharray:none;stroke-opacity:1"
       d="m 215.17359,377.90817 c -10.00954,3.10677 -16.04466,12.51533 -21.25023,20.95297 -3.67156,9.88219 -6.71735,20.84547 -15.24521,27.80148 -3.12416,2.77559 -7.16592,4.04013 -10.65091,6.24962"
       id="path42" />
    <path
       style="fill:#ffe680;fill-opacity:1;stroke:#000000;stroke-width:4.30001;stroke-dasharray:none;stroke-opacity:1"
       d="m 478.84734,243.63272 c 5.25141,-8.43497 13.16776,-15.34371 23.10347,-17.3877 10.97716,-2.71378 22.54665,-0.51364 33.37462,-4.22491 3.47563,-1.01584 6.84692,-2.54521 9.66774,-4.84613"
       id="path43" />
    <path
       style="fill:#ffe680;fill-opacity:1;stroke:#000000;stroke-width:4.30001;stroke-dasharray:none;stroke-opacity:1"
       d="m 454.80921,420.14874 c 1.10339,-1.3464 2.67046,-2.79918 4.55793,-2.45731 1.88881,0.11014 3.19773,1.73437 3.95025,3.32008 1.12734,2.26999 1.65004,4.94056 3.57141,6.73363 1.30163,1.25991 3.17413,1.5499 4.88637,1.85837 1.57028,0.22105 3.18719,0.19386 4.72987,-0.19435"
       id="path44" />
    <path
       style="fill:#ffe680;fill-opacity:1;stroke:#000000;stroke-width:4.30001;stroke-dasharray:none;stroke-opacity:1"
       d="m 504.51193,333.59105 c -0.29849,0.61731 1.20436,1.02453 0.3673,0.26675 1.32864,2.48608 4.13494,0.72086 5.93908,-0.045 2.14428,-0.67479 4.23829,0.12088 6.12903,1.10115"
       id="path45" />
    <path
       style="fill:#ffe680;fill-opacity:1;stroke:#000000;stroke-width:4.30001;stroke-dasharray:none;stroke-opacity:1"
       d="m 287.38981,467.01558 c -5.14319,6.5401 -5.55659,15.21995 -6.87425,23.10648 -1.38657,12.1639 0.11157,24.461 2.95172,36.30669 0.42948,2.99911 0.44089,6.03855 0.36798,9.06128"
       id="path46" />
  </g>
</svg>
