<svg width="1811" height="949" viewBox="0 0 1811 949" fill="none" xmlns="http://www.w3.org/2000/svg">
<path d="M395.805 469.557C376.838 392.443 277.114 361.067 206.66 400.775C150.992 433.248 60.9829 458.164 23.8334 384.187C-33.435 266.343 16.5032 102.401 130.818 45.6378C219.624 -4.37627 334.479 -17.8425 427.478 28.3178C527.725 77.3791 608.014 178.431 614.446 298.289C622.422 402.463 608.846 519.586 671.976 608.102C728.92 689.209 852.317 659.153 889.151 572.986C919.86 490.514 898.513 412.673 920.263 327.41C944.738 250.231 1007.11 181.135 1088.89 197.531C1169.22 230.486 1219.36 309.276 1212.7 398.892C1219 478.667 1224.18 582.424 1304.34 619.409C1368.44 649.419 1454.8 617.691 1461.57 535.649C1475.41 443.847 1476.45 343.201 1536.75 268.832C1581.47 207.921 1663.73 191.187 1728.57 216.776C1815.56 263.15 1844.26 352.288 1761.12 396.187C1704.85 424.968 1618.03 474.767 1615.42 539.239C1606.21 633.923 1650.43 741.793 1585.12 823.927C1533.47 895.419 1443.23 951.159 1355.93 931.466C1290.59 920.093 1174.78 852.649 1144.79 730.696C1125.08 640.436 1065.93 539.922 990.907 644.541C923.294 725.4 947.574 834.455 831.977 916.48C754.571 962.163 669.682 964.605 588.375 889.446C525.111 813.665 520.358 809.355 475.882 694.687C457.626 639.745 413.941 529.4 395.805 469.557Z" fill="#FFC3C3"/>
</svg>
