<svg width="316" height="115" viewBox="0 0 316 115" fill="none" xmlns="http://www.w3.org/2000/svg">
<mask id="mask0_278_587" style="mask-type:luminance" maskUnits="userSpaceOnUse" x="0" y="0" width="316" height="115">
<path d="M316 0H0V114.722H316V0Z" fill="white"/>
</mask>
<g mask="url(#mask0_278_587)">
<path d="M247.704 41.6882C250.02 41.6882 251.177 39.827 251.177 36.1047C251.177 34.2224 250.912 32.7948 250.381 31.8219C249.871 30.849 249 30.3626 247.768 30.3626C246.557 30.3626 245.665 30.8279 245.091 31.7584C244.518 32.689 244.231 33.958 244.231 35.5654C244.231 38.5475 244.783 40.4192 245.888 41.1806C246.376 41.519 246.982 41.6882 247.704 41.6882ZM240.375 36.0095C240.375 34.4445 240.609 33.0909 241.076 31.9488C241.543 30.7856 242.17 29.8973 242.956 29.284C244.464 28.1419 246.132 27.5709 247.959 27.5709C249.234 27.5709 250.306 27.7823 251.177 28.2053C252.07 28.6072 252.76 29.083 253.249 29.6329C253.759 30.1617 254.183 30.9442 254.523 31.9805C254.884 32.9957 255.065 34.2013 255.065 35.5971C255.065 38.5157 254.353 40.7259 252.93 42.2275C251.507 43.7291 249.68 44.4799 247.449 44.4799C245.24 44.4799 243.508 43.7714 242.255 42.3544C241.002 40.9162 240.375 38.8013 240.375 36.0095ZM259.186 40.4509V31.6633C259.186 31.3249 259.122 31.0922 258.995 30.9653C258.889 30.8173 258.687 30.7327 258.389 30.7115L257.051 30.6164V28.0467H262.436V30.426C262.819 29.6012 263.413 28.9244 264.221 28.3957C265.028 27.8458 265.952 27.5709 266.993 27.5709C268.055 27.5709 269.064 27.8035 270.02 28.2688V32.9957L267.057 33.2178V31.7584C267.057 31.3354 266.951 31.0711 266.738 30.9653C266.504 30.8596 266.218 30.8067 265.878 30.8067C265.028 30.8067 264.327 31.1134 263.775 31.7267C263.244 32.3189 262.978 33.0803 262.978 34.0109V41.3709L265.75 41.4978V44.004H257.21V41.593L258.262 41.4978C258.581 41.4555 258.814 41.3709 258.963 41.244C259.112 41.096 259.186 40.8316 259.186 40.4509ZM271.738 30.6164V28.0467H277.124V30.1088C278.313 28.4168 279.938 27.5709 281.999 27.5709C284.081 27.5709 285.483 28.4168 286.205 30.1088C287.395 28.4168 289.009 27.5709 291.049 27.5709C292.578 27.5709 293.757 28.0361 294.586 28.9667C295.414 29.8761 295.829 31.2509 295.829 33.0909V41.3709L297.645 41.4661V44.004H290.061V41.593L291.113 41.4978C291.431 41.4555 291.654 41.3709 291.782 41.244C291.93 41.096 292.015 40.8422 292.037 40.4826V33.9157C292.037 32.7525 291.899 31.8959 291.622 31.346C291.368 30.775 290.751 30.4895 289.774 30.4895C288.797 30.4895 288.043 30.7856 287.512 31.3777C287.002 31.9699 286.747 32.763 286.747 33.7571V41.3709L288.5 41.4661V44.004H280.979V41.593L282.031 41.4978C282.35 41.4555 282.583 41.3709 282.732 41.244C282.881 41.096 282.955 40.8316 282.955 40.4509V33.9157C282.955 32.7525 282.817 31.8959 282.541 31.346C282.286 30.775 281.659 30.4895 280.661 30.4895C279.683 30.4895 278.94 30.7961 278.43 31.4095C277.92 32.0228 277.665 32.7842 277.665 33.6937V41.3709L279.386 41.4661V44.004H271.866V41.593L272.917 41.4978C273.236 41.4555 273.47 41.3709 273.618 41.244C273.767 41.096 273.841 40.8316 273.841 40.4509H273.873V31.695C273.873 31.3354 273.81 31.0922 273.682 30.9653C273.576 30.8173 273.374 30.7327 273.077 30.7115L271.738 30.6164Z" fill="#140000"/>
<mask id="mask1_278_587" style="mask-type:luminance" maskUnits="userSpaceOnUse" x="197" y="0" width="59" height="57">
<path d="M237.666 0.409784L197.335 18.9256L214.925 56.9022L255.256 38.3864L237.666 0.409784Z" fill="white"/>
</mask>
<g mask="url(#mask1_278_587)">
<path d="M212.757 29.9092C212.076 27.7656 209.538 26.8328 207.917 27.884C206.638 28.7449 204.495 29.3745 203.376 27.3052C201.641 24.0106 202.414 19.5123 205.066 18.0185C207.11 16.6943 209.896 16.3975 212.31 17.7344C214.911 19.1562 217.165 22.0018 217.656 25.3187C218.141 28.2033 218.133 31.4314 219.93 33.9194C221.555 36.1986 224.505 35.4487 225.171 33.0912C225.697 30.8322 224.956 28.6667 225.254 26.3244C225.641 24.2074 226.982 22.3386 229.038 22.8455C231.104 23.8091 232.555 26.0197 232.641 28.4921C233.017 30.7012 233.433 33.5724 235.507 34.6467C237.165 35.5185 239.2 34.6966 239.139 32.4349C239.224 29.9067 238.97 27.1257 240.246 25.1099C241.176 23.4558 243.151 23.0473 244.816 23.7971C247.083 25.1359 248.036 27.6185 246.114 28.7771C244.811 29.5359 242.815 30.8552 242.93 32.6352C242.967 35.2462 244.354 38.2563 242.976 40.4836C241.905 42.4257 239.842 43.9072 237.641 43.3051C236.004 42.9482 232.97 41.0077 231.894 37.6176C231.158 35.11 229.425 32.293 227.871 35.1351C226.434 37.3258 227.334 40.3557 224.72 42.547C222.945 43.7585 220.865 43.7707 218.657 41.6396C216.892 39.5038 216.763 39.3815 215.351 36.183C214.75 34.6523 213.369 31.5749 212.757 29.9092Z" fill="#DAAFFF" stroke="black" stroke-width="2"/>
</g>
<path d="M18.1926 22.9074L23.6097 37.2468H23.6735L29.1225 22.9074H35.4319V25.4771L34.3803 25.5722C33.743 25.6357 33.4349 26.0058 33.4562 26.6826L34.2528 41.2123L36.2285 41.3075V44.004H28.5489V41.4344L29.6961 41.3392C30.2696 41.2969 30.5458 41.022 30.5246 40.5144L29.9191 29.3157H29.8554L24.9481 41.9737H21.9209L17.0773 29.4426H17.0136L16.3763 41.2123L18.4475 41.3075V44.004H10.9272V41.4344L12.0744 41.3392C12.563 41.2969 12.8286 41.0114 12.871 40.4826L13.7314 25.7309L11.7876 25.604V22.9074H18.1926ZM49.6436 43.4013V40.9902C48.4751 42.6399 46.7544 43.4647 44.4813 43.4647C41.1886 43.4647 39.5422 41.6353 39.5422 37.9764V31.5998C39.5422 31.0288 39.2766 30.7327 38.7455 30.7115L37.7258 30.6481V28.0467H43.3342V37.1516C43.3342 38.2725 43.4935 39.1185 43.8122 39.6895C44.1308 40.2606 44.7894 40.5461 45.7878 40.5461C46.7863 40.5461 47.5829 40.2394 48.1777 39.6261C48.7938 39.0128 49.1018 38.2725 49.1018 37.4054V31.6633C49.1018 31.3037 49.0381 31.0605 48.9106 30.9336C48.8044 30.7856 48.6026 30.7115 48.3052 30.7115L47.2855 30.6481V28.0467H52.8938V43.4013C52.8938 45.9603 52.2671 47.8321 51.0138 49.0164C49.7816 50.2008 47.9016 50.793 45.3736 50.793C42.8668 50.793 40.9124 50.444 39.5103 49.7461V45.3364L42.5375 45.0826V46.6054C42.5375 47.1764 42.8031 47.5571 43.3342 47.7475C43.8653 47.959 44.5982 48.0647 45.5329 48.0647C48.2733 48.0647 49.6436 46.5102 49.6436 43.4013ZM77.6673 44.004H62.5312V41.4344L63.5827 41.3392C64.1988 41.2758 64.5068 40.9797 64.5068 40.4509V25.6991L62.6905 25.604V22.9074H70.3701V25.4771L69.3185 25.5722C68.7025 25.6357 68.3944 25.9741 68.3944 26.5874V40.7364H73.6841C73.9815 40.7364 74.1727 40.6624 74.2577 40.5144C74.3639 40.3452 74.417 40.0808 74.417 39.7213V37.5006L77.6673 37.7226V44.004ZM85.4458 28.0467V41.3709L87.2622 41.4661V44.004H79.6782V41.593L80.7297 41.4978C81.3458 41.4344 81.6538 41.096 81.6538 40.4826V31.6633C81.6538 31.3037 81.5901 31.0605 81.4626 30.9336C81.3564 30.8067 81.1546 30.7433 80.8572 30.7433L79.7419 30.6798V28.0467H85.4458ZM81.4308 25.3184C80.9846 24.8743 80.7616 24.3138 80.7616 23.6371C80.7616 22.9603 80.9846 22.3998 81.4308 21.9557C81.8769 21.4904 82.4611 21.2578 83.1834 21.2578C83.9056 21.2578 84.4899 21.4904 84.936 21.9557C85.4033 22.3998 85.637 22.9603 85.637 23.6371C85.637 24.3138 85.4033 24.8743 84.936 25.3184C84.4899 25.7414 83.9056 25.9529 83.1834 25.9529C82.4611 25.9529 81.8769 25.7414 81.4308 25.3184ZM92.6441 24.684H94.7154V28.0467H98.9535L98.6348 30.7115H94.7154V39.0551C94.7154 39.9856 94.8853 40.6413 95.2252 41.022C95.5651 41.3815 96.0856 41.5613 96.7866 41.5613C97.5089 41.5613 98.2312 41.3392 98.9535 40.8951L99.9095 43.3378C98.8473 44.078 97.4983 44.4482 95.8625 44.4482C94.9066 44.4482 94.0993 44.3213 93.4408 44.0675C92.7822 43.8348 92.2936 43.5705 91.9749 43.2744C91.6563 42.9783 91.412 42.5447 91.242 41.9737C91.0721 41.4026 90.9765 40.9585 90.9552 40.6413C90.934 40.3029 90.9234 39.8164 90.9234 39.182V30.7115H88.6609L88.9796 28.3957C89.978 28.3111 90.7322 27.9621 91.242 27.3488C91.7519 26.7143 92.2192 25.826 92.6441 24.684ZM104.345 24.684H106.416V28.0467H110.654L110.335 30.7115H106.416V39.0551C106.416 39.9856 106.586 40.6413 106.926 41.022C107.266 41.3815 107.786 41.5613 108.487 41.5613C109.21 41.5613 109.932 41.3392 110.654 40.8951L111.61 43.3378C110.548 44.078 109.199 44.4482 107.563 44.4482C106.607 44.4482 105.8 44.3213 105.141 44.0675C104.483 43.8348 103.994 43.5705 103.676 43.2744C103.357 42.9783 103.113 42.5447 102.943 41.9737C102.773 41.4026 102.677 40.9585 102.656 40.6413C102.635 40.3029 102.624 39.8164 102.624 39.182V30.7115H100.362L100.68 28.3957C101.679 28.3111 102.433 27.9621 102.943 27.3488C103.453 26.7143 103.92 25.826 104.345 24.684ZM118.524 21.3846V41.3709L120.34 41.4661V44.004H112.756V41.593L113.807 41.4978C114.424 41.4344 114.732 41.096 114.732 40.4826V24.8426C114.732 24.3773 114.466 24.1235 113.935 24.0812L112.82 24.0178V21.3846H118.524ZM130.309 27.5709C131.902 27.5709 133.166 27.9621 134.101 28.7447C135.036 29.506 135.503 30.5846 135.503 31.9805C135.503 32.9111 135.301 33.736 134.898 34.4551C134.494 35.153 133.995 35.7029 133.4 36.1047C132.805 36.5066 132.083 36.8344 131.233 37.0882C129.81 37.5112 128.206 37.7226 126.422 37.7226C126.485 38.8436 126.836 39.753 127.473 40.4509C128.11 41.1277 129.088 41.4661 130.405 41.4661C131.722 41.4661 133.039 41.0008 134.356 40.0702L135.567 42.6399C135.142 43.0206 134.42 43.4118 133.4 43.8137C132.402 44.2155 131.255 44.4164 129.959 44.4164C127.367 44.4164 125.466 43.7079 124.255 42.2909C123.044 40.8528 122.438 38.8859 122.438 36.3902C122.438 33.8946 123.129 31.8007 124.51 30.1088C125.89 28.4168 127.824 27.5709 130.309 27.5709ZM128.843 34.8357C129.629 34.6877 130.352 34.381 131.01 33.9158C131.669 33.4293 131.998 32.8582 131.998 32.2026C131.998 30.9125 131.361 30.2674 130.086 30.2674C128.896 30.2674 127.983 30.7433 127.346 31.695C126.708 32.6256 126.358 33.7466 126.294 35.0578C127.229 35.0367 128.079 34.9626 128.843 34.8357ZM144.316 22.9074H153.302C157.891 22.9074 160.185 24.6734 160.185 28.2053C160.185 30.1511 159.208 31.6315 157.253 32.6467C158.507 32.964 159.484 33.5456 160.185 34.3916C160.907 35.2376 161.269 36.3374 161.269 37.6909C161.269 39.7424 160.568 41.3075 159.165 42.3861C157.785 43.4647 155.766 44.004 153.111 44.004H144.157V41.4344L145.208 41.3392C145.824 41.2758 146.132 40.9797 146.132 40.4509V25.6991L144.316 25.604V22.9074ZM150.02 34.3916V41.022H153.015C155.777 41.022 157.158 39.901 157.158 37.6592C157.158 36.6017 156.807 35.798 156.106 35.2482C155.427 34.6771 154.449 34.3916 153.175 34.3916H150.02ZM150.02 25.826V31.5681H152.378C153.695 31.5681 154.662 31.3037 155.278 30.775C155.915 30.2251 156.234 29.4637 156.234 28.4909C156.234 27.518 155.915 26.8306 155.278 26.4288C154.662 26.0269 153.77 25.826 152.601 25.826H150.02ZM170.623 41.6882C172.939 41.6882 174.096 39.827 174.096 36.1047C174.096 34.2224 173.831 32.7948 173.3 31.8219C172.79 30.849 171.919 30.3626 170.687 30.3626C169.476 30.3626 168.584 30.8279 168.01 31.7584C167.437 32.689 167.15 33.958 167.15 35.5654C167.15 38.5475 167.702 40.4192 168.807 41.1806C169.295 41.519 169.901 41.6882 170.623 41.6882ZM163.294 36.0095C163.294 34.4445 163.528 33.0909 163.995 31.9488C164.462 30.7856 165.089 29.8973 165.875 29.284C167.383 28.1419 169.051 27.5709 170.878 27.5709C172.153 27.5709 173.225 27.7823 174.096 28.2053C174.989 28.6072 175.679 29.083 176.168 29.6329C176.678 30.1617 177.102 30.9442 177.442 31.9805C177.803 32.9957 177.984 34.2013 177.984 35.5971C177.984 38.5158 177.272 40.7259 175.849 42.2275C174.426 43.7291 172.599 44.4799 170.368 44.4799C168.159 44.4799 166.427 43.7714 165.174 42.3544C163.921 40.9162 163.294 38.8013 163.294 36.0095ZM187.458 41.6882C189.774 41.6882 190.932 39.827 190.932 36.1047C190.932 34.2224 190.666 32.7948 190.135 31.8219C189.625 30.849 188.754 30.3626 187.522 30.3626C186.311 30.3626 185.419 30.8279 184.845 31.7584C184.272 32.689 183.985 33.958 183.985 35.5654C183.985 38.5475 184.537 40.4192 185.642 41.1806C186.131 41.519 186.736 41.6882 187.458 41.6882ZM180.129 36.0095C180.129 34.4445 180.363 33.0909 180.83 31.9488C181.298 30.7856 181.924 29.8973 182.71 29.284C184.219 28.1419 185.886 27.5709 187.713 27.5709C188.988 27.5709 190.061 27.7823 190.932 28.2053C191.824 28.6072 192.514 29.083 193.003 29.6329C193.513 30.1617 193.938 30.9442 194.278 31.9805C194.639 32.9957 194.819 34.2013 194.819 35.5971C194.819 38.5158 194.108 40.7259 192.684 42.2275C191.261 43.7291 189.434 44.4799 187.203 44.4799C184.994 44.4799 183.263 43.7714 182.009 42.3544C180.756 40.9162 180.129 38.8013 180.129 36.0095ZM198.94 40.4509V25.0012C198.94 24.6628 198.877 24.4302 198.749 24.3033C198.643 24.1764 198.441 24.1024 198.144 24.0812L197.028 24.0178V21.3846H202.7V35.1213C203.869 35.0155 204.889 34.656 205.759 34.0426C206.63 33.4293 207.225 32.6256 207.544 31.6315C207.608 31.4201 207.64 31.2509 207.64 31.124C207.64 30.7644 207.438 30.5847 207.034 30.5847L205.823 30.5212V28.0467H212.419V30.6164L210.89 30.6798C210.614 32.8371 209.679 34.5397 208.086 35.7875L211.209 41.3709L213.152 41.4661V44.004H208.5L204.867 37.4054C204.166 37.5958 203.444 37.7438 202.7 37.8495V41.3709H202.732L204.549 41.4661V44.004H196.965V41.593L198.016 41.4978C198.335 41.4555 198.569 41.3709 198.717 41.244C198.866 41.096 198.94 40.8316 198.94 40.4509Z" fill="#140000"/>
</g>
</svg>
