<?xml version="1.0" encoding="UTF-8" standalone="no"?>
<!-- Created with Inkscape (http://www.inkscape.org/) -->

<svg
   width="743.16028mm"
   height="484.5513mm"
   viewBox="0 0 743.16028 484.5513"
   version="1.1"
   id="svg1"
   xmlns="http://www.w3.org/2000/svg"
   xmlns:svg="http://www.w3.org/2000/svg">
  <defs
     id="defs1" />
  <g
     id="layer10"
     transform="translate(21.335234,-12.388471)">
    <path
       style="fill:#c6afe9;fill-opacity:1;stroke:#000000;stroke-width:13.2528;stroke-dasharray:none"
       d="M 609.06902,86.130065 C 517.94614,110.08655 446.92765,137.90779 355.73991,161.67628 449.01343,138.08804 539.28266,85.228605 632.00441,85.069185 647.81813,153.48064 667.65293,363.74209 677.55972,452.07054 556.90584,424.8234 490.26391,435.02658 407.35252,450.27514 385.10387,465.69083 342.29469,472.21702 297.04826,451.33765 206.63855,429.22454 138.23138,419.16721 30.109708,448.5607 42.026422,319.18338 56.409607,203.57425 77.875799,86.680815 c 36.445061,-0.32626 26.911791,-1.00825 60.354941,-1.77498 75.38096,23.200305 147.35693,65.283145 223.02817,87.767545"
       id="path6-0-4" />
  </g>
  <g
     id="layer1"
     transform="translate(21.335234,-12.388471)">
    <path
       style="fill:#ffffff;fill-opacity:1;stroke:#000000;stroke-width:6.84612;stroke-dasharray:none;stroke-opacity:1"
       d="m 72.731945,367.14933 c -0.108199,10.04726 5.311818,13.41351 9.484023,22.70551 81.134232,-22.28879 163.609412,0.36662 228.917652,50.52578 25.19457,-11.54087 53.32838,-15.15631 78.48136,-0.81915 82.07894,-49.34525 152.7225,-77.99941 234.43858,-72.29447 4.72259,-12.75721 10.29713,-18.55449 11.89798,-26.91184"
       id="path19" />
    <path
       style="fill:#ffffff;fill-opacity:1;stroke:#000000;stroke-width:10.5897;stroke-dasharray:none;stroke-opacity:1"
       d="m 351.69289,115.00834 c 0,0 87.00667,-108.170271 246.91065,-56.436558 32.92153,138.740378 35.27293,277.480748 35.27293,277.480748 0,0 -182.95942,-0.18269 -279.38919,82.97829 C 262.85014,387.85696 233.00313,342.38958 74.437519,363.03812 70.348093,235.84014 111.27866,84.550915 111.27866,84.550915 c 0,0 96.9706,-105.931969 240.41423,30.456985 z"
       id="path3-5-1" />
    <path
       style="fill:#000000;stroke:#000000;stroke-width:12.7701;stroke-dasharray:none"
       d="M 352.62279,112.64975 351.603,419.50736"
       id="path7-5" />
    <path
       style="fill:none;fill-opacity:1;stroke:#000000;stroke-width:0;stroke-dasharray:none;stroke-opacity:1"
       d="m 596.475,50.300534 c 0,4.778256 0,4.778256 0,0 z"
       id="path17" />
    <path
       style="fill:none;fill-opacity:1;stroke:#000000;stroke-width:4.69448;stroke-dasharray:none;stroke-opacity:1"
       d="m 374.05948,424.12895 c 43.00697,-30.87477 97.13553,-55.07389 152.99322,-67.78579"
       id="path20" />
    <path
       style="fill:none;fill-opacity:1;stroke:#000000;stroke-width:4.69448;stroke-dasharray:none;stroke-opacity:1"
       d="m 399.39997,423.81223 c 17.61087,-13.35272 40.56972,-28.62953 61.45068,-36.11021"
       id="path22" />
    <path
       style="fill:none;fill-opacity:1;stroke:#000000;stroke-width:4.69448;stroke-dasharray:none;stroke-opacity:1"
       d="m 629.36491,349.37453 c -10.65948,-2.49311 -22.1255,-2.4237 -33.25939,-0.95025"
       id="path23" />
    <path
       style="fill:none;fill-opacity:1;stroke:#000000;stroke-width:4.69448;stroke-dasharray:none;stroke-opacity:1"
       d="m 626.5141,356.97668 c -6.73426,-2.58165 -19.64157,-3.80783 -22.48968,-2.85079"
       id="path24" />
    <path
       style="fill:none;fill-opacity:1;stroke:#000000;stroke-width:4.69448;stroke-dasharray:none;stroke-opacity:1"
       d="m 80.426568,382.00042 c 12.035598,-1.40559 23.826992,-6.62099 36.110222,-4.43457"
       id="path25" />
    <path
       style="fill:none;fill-opacity:1;stroke:#000000;stroke-width:4.69448;stroke-dasharray:none;stroke-opacity:1"
       d="m 77.258977,374.39828 c 11.867876,-3.38639 49.083833,-7.50126 69.052893,-6.96867"
       id="path26" />
    <path
       style="fill:none;fill-opacity:1;stroke:#000000;stroke-width:4.69448;stroke-dasharray:none;stroke-opacity:1"
       d="M 325.27906,426.34628 C 316.1074,416.28836 290.55348,403.51357 250.52462,386.11823"
       id="path27" />
    <path
       style="fill:none;fill-opacity:1;stroke:#000000;stroke-width:4.69448;stroke-dasharray:none;stroke-opacity:1"
       d="M 319.89419,434.58194 C 304.0726,419.92368 279.84367,406.99343 259.39379,399.42198"
       id="path28" />
    <path
       style="fill:none;fill-opacity:1;stroke:#000000;stroke-width:4.69448;stroke-dasharray:none;stroke-opacity:1"
       d="m 218.84899,381.68364 c -10.8319,-2.83806 -40.70692,-9.26534 -63.03445,-7.91891"
       id="path29" />
  </g>
</svg>
