<?xml version="1.0" encoding="UTF-8" standalone="no"?>
<!-- Created with Inkscape (http://www.inkscape.org/) -->

<svg
   width="602.39221"
   height="583.95435"
   viewBox="0 0 159.38294 154.50459"
   version="1.1"
   id="svg1"
   xmlns="http://www.w3.org/2000/svg"
   xmlns:svg="http://www.w3.org/2000/svg">
  <defs
     id="defs1" />
  <g
     id="g2"
     transform="matrix(6.6829493,0,0,6.6829493,-682.84396,-601.1023)"
     style="display:inline;fill:#d5e5ff">
    <g
       id="g1"
       style="fill:#d5e5ff">
      <g
         id="g3">
        <path
           id="path20-3"
           style="display:inline;fill:#d5e5ff;fill-opacity:1;stroke:#ffffff;stroke-width:0.32;stroke-dasharray:none;stroke-opacity:1"
           d="m 124.64145,90.660011 c -0.52347,-0.0076 -1.38848,0.676938 -1.10897,1.026294 0.57374,0.949325 -0.71589,3.091127 -2.22984,3.020487 -1.38307,-0.50494 -2.23137,-1.644674 -3.51038,-2.312003 -2.08519,-0.831609 -3.03886,-1.153333 -5.32888,-0.04548 -1.15089,0.871428 -1.65334,1.704599 -1.57044,3.743958 l 0.0258,0.04393 c -0.42269,0.105918 -0.8624,0.330071 -1.35185,0.691431 -0.88895,1.197026 -0.99117,3.004983 0.32659,3.291792 2.34914,0.40448 1.30949,1.37407 1.30949,1.37407 -1.79111,-0.51633 -3.76243,1.00119 -4.66794,1.88826 -1.14054,0.95975 -1.80543,4.21152 -1.01337,5.58881 0.69979,1.96687 2.73799,2.84416 4.8581,3.02617 2.97805,0.33771 5.70318,0.25434 8.71678,-0.0599 0.31569,-0.14473 0.57197,-0.35 0.77825,-0.59325 l 0.28784,0.48886 c 0.36973,0.28149 0.83582,0.40843 1.29501,0.42633 1.12644,0.17368 3.39584,-0.70682 2.00814,-2.00505 -1.24919,-0.99444 -2.01452,-2.42528 -2.61638,-3.87418 -0.53488,-1.1271 -1.01985,-2.3909 -0.5674,-3.63802 0.3038,-1.3386 0.4163,-2.27272 1.58285,-2.984829 1.28794,0.22366 2.21872,-1.727218 2.48667,-2.29237 0.33194,-0.73739 1.32631,-4.458215 0.65215,-6.269385 0.0428,-0.385802 -0.12431,-0.532441 -0.36225,-0.535884 z"
           transform="translate(-1.3716499e-6)" />
        <path
           style="fill:#d5e5ff;fill-opacity:1;stroke:#ffffff;stroke-width:0.32;stroke-dasharray:none;stroke-opacity:1"
           d="m 104.08784,106.59846 c -0.57308,-0.18156 -0.78207,-1.79748 -1.10973,-1.32397 0.16459,1.09941 0.58306,2.30065 1.61218,2.87312"
           id="path28-1" />
      </g>
    </g>
  </g>
  <g
     id="layer1"
     transform="translate(-82.378869,-79.677276)">
    <g
       id="g30"
       transform="matrix(2.9913794,0,0,2.9913794,-145.80319,-419.65203)"
       style="stroke-width:0.714902;stroke-dasharray:none">
      <path
         style="fill:none;fill-opacity:1;stroke:#000000;stroke-width:0.714902;stroke-dasharray:none;stroke-opacity:1"
         d="m 95.93871,180.72863 c -0.185148,-4.55607 0.749358,-6.19724 3.508893,-8.36384 3.703267,-2.38084 8.470287,-1.75696 11.904317,0.10092 2.60623,1.14551 4.7533,4.03712 7.84318,5.16519 3.38227,0.15782 6.26271,-4.62723 4.98094,-6.74809 -0.90826,-1.13525 3.59334,-3.85388 3.28758,-1.09577 1.50612,4.04628 -0.71587,12.35992 -1.45745,14.0073 -0.59863,1.26259 -2.67751,5.62085 -5.55485,5.12117 -2.60616,1.5909 -2.85807,3.67695 -3.53679,6.66747 -1.01081,2.78615 0.0732,5.60988 1.26825,8.12791 1.34458,3.23693 3.05395,6.43361 5.84471,8.65525 3.10022,2.90033 -1.96952,4.86779 -4.48608,4.47977 -1.02585,-0.0399 -2.06691,-0.32364 -2.8929,-0.95251"
         id="path20" />
      <path
         style="fill:none;fill-opacity:1;stroke:#000000;stroke-width:0.714902;stroke-dasharray:none;stroke-opacity:1"
         d="m 102.24395,182.59854 c -3.484598,-2.29486 -6.897744,-2.5765 -9.267654,-0.22709 -1.985965,2.07772 -2.214453,6.71308 0.729511,7.35382 7.671713,1.32094 3.174799,6.22519 6.152399,8.33335 3.017444,2.69532 8.857074,1.69557 10.080324,-2.37355 0.2262,-0.87176 -0.0576,-1.74174 -0.11751,-2.61176"
         id="path21" />
      <path
         style="fill:none;fill-opacity:1;stroke:#000000;stroke-width:0.714902;stroke-dasharray:none;stroke-opacity:1"
         d="m 96.631296,192.79487 c -4.001439,-1.15353 -8.404751,2.23742 -10.427713,4.21919 -2.548044,2.14414 -4.034356,9.40814 -2.264841,12.48511 1.563382,4.39412 6.116906,6.35502 10.853388,6.76165 6.65316,0.75446 12.74214,0.56808 19.47475,-0.13398 3.39106,-1.55458 3.84933,-6.12341 2.40573,-9.18787 -1.00763,-2.69964 -4.52298,-4.35999 -7.12664,-2.86554 -1.07129,0.36118 -2.13242,0.75201 -3.18574,1.16252"
         id="path22" />
      <path
         style="fill:none;fill-opacity:1;stroke:#000000;stroke-width:0.714902;stroke-dasharray:none;stroke-opacity:1"
         d="m 107.76307,200.74614 c 1.42111,1.48056 0.92238,1.31074 1.59031,3.18051"
         id="path23" />
      <path
         style="fill:none;fill-opacity:1;stroke:#000000;stroke-width:0.714902;stroke-dasharray:none;stroke-opacity:1"
         d="m 118.66567,177.41908 c -1.87112,0.10511 -2.06421,1.86932 -1.59015,3.36737"
         id="path24-1" />
      <path
         style="fill:none;fill-opacity:1;stroke:#000000;stroke-width:0.714902;stroke-dasharray:none;stroke-opacity:1"
         d="m 119.74286,177.63271 c -1.05352,0.42862 -1.72073,1.51713 -0.65921,3.21476"
         id="path24-5" />
      <path
         style="fill:none;fill-opacity:1;stroke:#000000;stroke-width:0.714902;stroke-dasharray:none;stroke-opacity:1"
         d="m 80.72876,204.39437 c -1.280316,-0.4056 -1.747197,-4.0157 -2.479219,-2.95784 0.367699,2.45616 1.302604,5.13982 3.601724,6.41875"
         id="path28" />
      <path
         style="fill:none;fill-opacity:1;stroke:#000000;stroke-width:0.714902;stroke-dasharray:none;stroke-opacity:1"
         d="m 99.718258,183.90816 c -2.793735,-2.77559 -6.619102,-2.33351 -6.861628,3.77461"
         id="path29" />
      <circle
         style="fill:#000000;fill-opacity:1;stroke:#000000;stroke-width:0.714902;stroke-dasharray:none;stroke-opacity:1"
         id="path30"
         cx="110.26511"
         cy="180.54504"
         r="1.190625" />
    </g>
  </g>
</svg>
