<?xml version="1.0" encoding="UTF-8" standalone="no"?>
<!-- Created with Inkscape (http://www.inkscape.org/) -->

<svg
   width="1056.766"
   height="578.8941"
   viewBox="0 0 279.60267 153.16574"
   version="1.1"
   id="svg1"
   xmlns="http://www.w3.org/2000/svg"
   xmlns:svg="http://www.w3.org/2000/svg">
  <defs
     id="defs1" />
  <g
     id="layer1"
     transform="translate(20.637519,-61.391427)">
    <path
       style="fill:#e5ffd5;fill-opacity:1;stroke:#aaaaff;stroke-width:0.94136;stroke-dasharray:none;stroke-dashoffset:2.25033;stroke-opacity:1"
       d="m -16.991837,103.20032 v 100.45769 l 4.048676,6.07303 4.3017311,2.02432 255.0664899,0.25292 5.06077,-3.0365 2.78351,-5.06085 V 102.18801 l -12.14601,0.50609 -26.06331,2.53041 -17.713,0.75912 -12.90514,-0.50609 -9.36256,-1.26521 -18.72511,-3.54259 -15.94165,-1.518269 -31.1242,1.012179 -29.099837,3.03653 -24.545083,1.51824 -14.423407,-0.25292 -14.67644,-0.75915 -14.170377,-0.25292 -17.2068525,-0.25292 h -9.6155855 z"
       id="path74" />
    <path
       style="fill:#afc6e9;fill-opacity:1;stroke:#aaaaff;stroke-width:0.94136;stroke-dasharray:none;stroke-dashoffset:2.25033;stroke-opacity:1"
       d="m 216.89739,65.863882 c -7.52234,1.654301 -13.49201,6.968912 -20.70984,9.410789 -16.80272,10.065653 -36.34851,13.952459 -53.72414,22.796349 l -1.05085,1.080613 32.19962,4.554747 3.79564,-1.83454 16.89055,-4.618043 15.37231,-3.352801 18.28231,-2.403897 4.618,0.126596 12.65211,-2.21411 9.29929,-0.316301 0.37958,-16.131432 -1.01218,-3.669102 -3.09977,-3.099771 -5.31389,-2.087596 -26.56941,0.632604 z"
       id="path66" />
    <path
       style="fill:#aaccff;fill-opacity:1;stroke:#aaaaff;stroke-width:0.94136;stroke-dasharray:none;stroke-dashoffset:2.25033;stroke-opacity:1"
       d="m 175.0283,102.72315 c 6.79505,-2.11479 13.81139,-3.45382 20.58189,-5.64272 11.55845,-2.460269 23.17651,-5.157448 35.04595,-5.355836 6.48392,-0.780867 12.90655,-2.16807 19.41709,-2.646811 1.22793,-0.0054 2.45562,0.02435 3.68327,0.0468 l 0.13337,13.000287 -27.70811,2.4039 -22.45748,1.51827 -18.97817,-0.31631 -11.45015,-1.83456 z"
       id="path67" />
    <path
       style="fill:none;fill-opacity:1;stroke:#aaaaff;stroke-width:0.94136;stroke-dasharray:none;stroke-dashoffset:2.25033;stroke-opacity:1"
       d="m -16.066602,104.15455 c 32.518003,-2.75531 65.31008,3.42974 97.850778,-1.24572 30.629434,-3.180669 61.798804,-6.159525 92.056794,1.38874 27.56943,5.38137 52.37145,-0.69723 79.89011,-1.57453"
       id="path59" />
    <path
       style="fill:#ffd42a;fill-opacity:1;stroke:#aaaaff;stroke-width:0.94136;stroke-dasharray:none;stroke-dashoffset:2.25033;stroke-opacity:1"
       d="m 69.818712,103.59808 c -0.308458,-0.47601 -0.616887,-0.95201 -0.925344,-1.42802 C 64.021708,92.077611 52.0339,86.364356 41.092486,88.269523 c -5.179197,1.189626 -10.428617,2.467708 -15.194076,4.891595 -4.268786,2.106369 -7.963479,5.950381 -8.684456,10.794822 z"
       id="path60" />
    <path
       style="fill:#afc6e9;fill-opacity:1;stroke:#aaaaff;stroke-width:0.94136;stroke-dasharray:none;stroke-dashoffset:2.25033;stroke-opacity:1"
       d="m 52.283792,88.408905 c 0.904001,0.08196 -0.220461,-1.49059 0.101981,-0.507953 1.002383,-2.222876 3.033957,-3.704567 4.937122,-5.113383 1.695714,-1.827965 1.380955,-4.934553 3.647056,-6.324895 2.304054,-1.490266 5.171516,-2.39808 6.715936,-4.820642 1.572609,-2.148351 3.398004,-4.338035 5.926197,-5.367199 l 0.143097,-0.05302 1.739888,-1.736967 62.374901,-0.506087 -3.16301,1.644778 -11.38691,6.832145 -30.997676,19.357717 -1.265205,1.13869 -5.81997,2.909985 -7.464748,5.313886 -2.530412,2.2774 -5.313881,0.25291 -1.518264,-3.41606 -2.403896,-3.922156 -3.970995,-3.562604 -4.310538,-2.550399 -4.370555,-2.110864 z"
       id="path63" />
    <path
       style="fill:#afc6e9;fill-opacity:1;stroke:#aaaaff;stroke-width:0.94136;stroke-dasharray:none;stroke-dashoffset:2.25033;stroke-opacity:1"
       d="M 16.701518,103.9026 C 16.310182,103.00965 14.475091,101.71687 14.038036,100.225 11.81535,96.431516 9.9066653,92.31397 6.5690664,89.335034 1.6878303,84.177721 -2.1532053,78.039854 -7.7409725,73.561751 -9.7334573,71.894088 -11.927117,70.418835 -13.561617,68.368921 l -2.164987,2.188954 -0.632603,6.95866 v 25.683785 z"
       id="path68" />
    <path
       style="fill:#aaccff;fill-opacity:1;stroke:#aaaaff;stroke-width:0.94136;stroke-dasharray:none;stroke-dashoffset:2.25033;stroke-opacity:1"
       d="m 138.88487,64.432587 c -6.07199,1.375896 -10.86766,5.54895 -15.98598,8.821898 -4.62146,2.65433 -9.49653,4.881019 -13.9812,7.787163 -6.48591,3.251092 -11.651728,8.548526 -18.05845,11.926782 -4.995064,1.438519 -12.113836,7.2675 -15.824651,10.87543 l 17.034755,-2.16181 32.895486,-2.150871 16.1947,-0.252922 1.01217,-1.771294 13.41124,-5.187366 17.45991,-6.70563 9.23601,-3.416045 11.13385,-5.693454 9.36256,-4.301706 11.13387,-5.693454 4.55474,-2.024352 z"
       id="path69" />
    <path
       style="fill:#ffffff;fill-opacity:1;stroke:#aaaaff;stroke-width:0.94136;stroke-dasharray:none;stroke-dashoffset:2.25033;stroke-opacity:1"
       d="m 123.49709,73.736822 c -2.81184,-3.399706 -8.47978,-4.779309 -12.04085,-1.744243 -1.98888,2.226581 -0.53844,7.251644 -4.55,7.530318 -3.91459,0.416957 -7.80401,-1.369729 -11.700715,-0.290576 -4.640946,0.692277 -9.012767,2.505201 -13.598368,3.442852 -3.119328,1.309975 -4.082462,6.488523 -0.933161,8.29693 4.169429,0.316761 8.360823,0.218838 12.530441,0.511633 6.516169,-0.02435 13.118693,-0.18746 19.506163,-1.549993 3.03579,-0.85788 6.04379,-2.083565 9.24583,-2.083998 4.76305,-1.750709 9.65668,3.052676 14.28204,0.380763 3.04048,-2.126224 5.30758,-6.085876 9.43073,-6.087715 3.48321,0.892747 8.17666,-0.503951 9.12587,-4.348693 -0.43008,-3.94729 -5.01644,-4.997878 -8.26472,-5.593042 -4.79005,-0.879439 -9.77289,-0.408599 -14.31426,1.34192 -2.81336,0.791579 -5.91554,1.312517 -8.719,0.193953 z"
       id="path61" />
    <path
       style="fill:#aaccff;fill-opacity:1;stroke:#aaaaff;stroke-width:0.94136;stroke-dasharray:none;stroke-dashoffset:2.25033;stroke-opacity:1"
       d="m -14.20834,67.900921 3.163015,-2.530413 5.8199402,-1.265233 H 74.862494 l -1.012176,1.644779 -2.277382,0.885661 -2.656954,2.909984 -2.656928,3.669103 -2.783469,1.644779 -3.795618,2.277381 -1.644779,3.163015 -1.012175,2.403897 -3.669157,3.542587 -1.518237,1.771295 -4.048648,-0.885634 -2.783469,0.126596 -17.839454,2.403897 -1.644779,2.656955 -3.036527,2.530412 -3.922105,4.175191 -1.265234,4.175207 -2.783469,-1.77131 L 12.107982,96.49476 0.84764188,79.28791 -1.4297668,79.540832 Z"
       id="path76" />
    <path
       style="fill:#ffffff;fill-opacity:1;stroke:#aaaaff;stroke-width:0.94136;stroke-dasharray:none;stroke-dashoffset:2.25033;stroke-opacity:1"
       d="m 1.1104645,79.10467 c 2.1255743,-0.976848 -0.78248979,-0.452907 1.3920999,-0.977389 3.7915877,-2.58784 8.3906866,-1.464785 11.0152906,2.052267 4.260779,1.89927 8.989557,3.101773 13.677436,3.084082 4.889568,0.359393 9.829287,-0.236692 14.662453,0.543742 5.403852,1.058486 3.914723,7.678555 -0.445467,9.019043 C 37.422166,95.87901 32.763339,92.596756 28.457441,92.490989 22.91436,91.456632 16.985999,90.878535 11.692378,93.249972 7.5295755,93.83218 3.2103138,95.260122 -0.99606613,94.276863 -3.4811955,91.612253 -10.028713,92.930668 -9.6270133,88.043805 c 0.9137924,-4.48857 6.2008385,-5.242631 9.11458317,-8.030996 0.51046997,-0.352711 1.04731414,-0.672583 1.62289463,-0.908139 z"
       id="path62" />
    <path
       style="fill:#ffccaa;fill-opacity:1;stroke:#aaaaff;stroke-width:1.03872;stroke-dasharray:none;stroke-dashoffset:2.25033;stroke-opacity:1"
       d="m 30.355398,103.91483 c -13.170747,5.0985 -28.8948335,8.0228 -37.0316402,20.87611 -6.1902388,9.29725 3.1709554,18.5886 12.2973089,20.03171 16.8902113,4.84522 34.5834913,0.84639 51.6259353,-1.03303 12.676073,-2.1917 25.329456,-4.85923 37.738344,-8.14419 12.651044,-5.21533 23.585894,-4.43469 22.211004,4.30331 -3.19374,11.64769 -18.592761,5.57837 -23.711466,15.00062 -7.412848,11.44975 2.562774,26.73345 15.091636,28.49026 21.46338,3.01968 42.7499,-2.95635 63.71546,-6.87377 5.85066,-0.82147 6.59456,7.06305 -0.70127,8.10338 -15.06179,3.33797 -30.69636,3.18991 -46.04093,4.28553 -22.46949,0.97602 -44.986536,-1.41705 -67.412397,1.07493 -8.667505,0.50014 -17.469582,0.88714 -25.272367,5.13367 -7.346187,3.21209 -14.546437,8.5916 -16.823958,16.64493 31.252714,0.11928 62.505425,0.23857 93.758132,0.35785 26.66814,-10.06691 55.67633,-9.27939 83.72461,-10.25842 14.30578,-0.99671 29.92979,-8.12951 35.92517,-21.98279 6.13528,-15.62096 -4.13179,-35.82802 -21.23387,-38.09235 -15.55866,-0.82465 -27.74655,11.14697 -42.18682,14.92975 -8.5361,4.56957 -26.7422,5.00899 -22.41914,-9.42548 4.83641,-8.26988 19.13397,-7.32896 21.35571,-18.39987 1.07571,-10.77818 -13.34984,-13.79136 -21.72496,-14.5919 -14.27715,-2.39693 -28.78872,-0.82478 -42.79995,2.3299 -14.672932,2.11987 -29.5476,3.64181 -44.243209,4.8736 -13.263061,-2.26312 -6.877831,-16.58674 3.556765,-17.58327 -9.215444,-0.53368 -19.737043,0.0904 -29.398098,-0.0505 z"
       id="path75" />
    <rect
       style="fill:none;fill-opacity:1;stroke:#aaaaff;stroke-width:1.64405;stroke-dasharray:none;stroke-opacity:1"
       id="rect3-0-5"
       width="271.9386"
       height="148.47638"
       x="-16.956909"
       y="63.927387"
       ry="9.8573608" />
  </g>
</svg>
