<?xml version="1.0" encoding="UTF-8" standalone="no"?>
<!-- Created with Inkscape (http://www.inkscape.org/) -->

<svg
   width="744"
   height="400"
   viewBox="0 0 196.85019 105.83332"
   version="1.1"
   id="svg1"
   xmlns="http://www.w3.org/2000/svg"
   xmlns:svg="http://www.w3.org/2000/svg">
  <defs
     id="defs1" />
  <path
     style="display:inline;fill:#ffaaaa;fill-opacity:1;stroke:none;stroke-width:3.93248;stroke-dasharray:none;stroke-opacity:1"
     d="M 45.187323,53.895015 C 43.219184,45.893804 32.870887,42.638276 25.559935,46.758244 19.783281,50.127673 10.443105,52.712826 6.5881332,45.037158 0.64544133,32.809891 5.8274885,15.799525 17.689869,9.9098723 26.905126,4.7204938 38.823613,3.3232571 48.473974,8.1127732 58.876587,13.20329 67.208076,23.688253 67.875498,36.124564 c 0.827734,10.808911 -0.581037,22.961326 5.969914,32.145593 5.909038,8.41554 18.713857,5.29702 22.536015,-3.643523 3.186736,-8.557134 0.971531,-16.633865 3.228506,-25.480544 2.539777,-8.008021 9.012357,-15.177308 17.498287,-13.47606 8.33608,3.419323 13.53882,11.594485 12.84751,20.892928 0.65348,8.277313 1.19132,19.042943 9.50996,22.880452 6.65086,3.113797 15.61323,-0.17832 16.31486,-8.690854 1.43686,-9.525221 1.54462,-19.968083 7.80215,-27.684395 4.64046,-6.32008 13.17645,-8.056401 19.9051,-5.401317 9.02675,4.811698 12.00405,14.060522 3.37716,18.615368 -5.83861,2.986315 -14.84789,8.153335 -15.11923,14.842868 -0.95531,9.824212 3.63335,21.01663 -3.14463,29.538749 -5.35916,7.417872 -14.72281,13.201401 -23.78284,11.158041 -6.77984,-1.17999 -18.79694,-8.177886 -21.90889,-20.831586 -2.04594,-9.365165 -8.18342,-19.794348 -15.96872,-8.939244 -7.016237,8.389777 -4.49665,19.705149 -16.492096,28.21595 -8.032387,4.73992 -16.841178,4.99333 -25.278388,-2.804982 C 58.605347,89.599103 58.112053,89.151846 53.496822,77.254138 51.602473,71.553456 47.069296,60.104225 45.187323,53.895015 Z"
     id="path8-8-6-1" />
  <g
     id="layer3"
     transform="translate(-69.25525,-195.26098)">
    <g
       id="g3"
       transform="matrix(1.968216,0,0,1.968216,-62.939078,-183.88022)">
      <path
         style="fill:none;fill-opacity:1;stroke:#000000;stroke-width:1.29262;stroke-dasharray:none;stroke-opacity:1"
         d="m 90.022562,219.2056 c 0,0 8.516869,6.9662 11.613908,-3.4831"
         id="path9-35-5-7" />
      <path
         style="fill:none;fill-opacity:1;stroke:#000000;stroke-width:1.29262;stroke-dasharray:none;stroke-opacity:1"
         d="m 92.482253,226.7563 c 0,0 7.839387,7.47842 10.936427,-2.97088"
         id="path9-2-0-7-1" />
      <path
         style="fill:none;fill-opacity:1;stroke:#000000;stroke-width:1.29262;stroke-dasharray:none;stroke-opacity:1"
         d="m 94.871537,233.92738 c 0,0 8.323303,5.01977 11.420343,-5.42953"
         id="path9-23-1-8-5" />
      <path
         style="fill:none;fill-opacity:1;stroke:#000000;stroke-width:1.29262;stroke-dasharray:none;stroke-opacity:1"
         d="m 101.66543,242.1216 c 0,0 9.00578,-0.97505 8.50856,-11.91385"
         id="path9-8-6-9-2" />
      <path
         style="fill:none;fill-opacity:1;stroke:#000000;stroke-width:1.29262;stroke-dasharray:none;stroke-opacity:1"
         d="m 112.23273,243.317 c 0,0 8.59516,-8.19671 -0.16849,-14.01778"
         id="path9-89-4-7-7" />
      <path
         style="fill:none;fill-opacity:1;stroke:#000000;stroke-width:1.29262;stroke-dasharray:none;stroke-opacity:1"
         d="m 119.56988,233.24963 c 0,0 0.93834,-7.06691 -4.37359,-6.669"
         id="path9-4-0-7-6" />
      <path
         style="fill:none;fill-opacity:1;stroke:#000000;stroke-width:1.29262;stroke-dasharray:none;stroke-opacity:1"
         d="m 122.2382,228.01873 c 0,0 0.0564,-6.2431 -5.34561,-5.85319"
         id="path9-3-6-1-1" />
      <path
         style="fill:none;fill-opacity:1;stroke:#000000;stroke-width:1.29262;stroke-dasharray:none;stroke-opacity:1"
         d="m 124.29322,226.1014 c 0,0 3.50794,-8.10198 -6.68158,-10.00087"
         id="path9-87-1-6-4" />
      <path
         style="fill:none;fill-opacity:1;stroke:#000000;stroke-width:1.29262;stroke-dasharray:none;stroke-opacity:1"
         d="m 126.28638,226.17957 c 0,0 4.95234,-11.56695 -6.39583,-17.81891"
         id="path9-9-8-5-2" />
      <path
         style="fill:none;fill-opacity:1;stroke:#000000;stroke-width:1.29262;stroke-dasharray:none;stroke-opacity:1"
         d="m 127.63023,227.6965 c 0,0 5.21101,-5.9105 5.3574,-13.46323"
         id="path9-6-9-0-3" />
      <path
         style="fill:none;fill-opacity:1;stroke:#000000;stroke-width:1.29262;stroke-dasharray:none;stroke-opacity:1"
         d="m 128.63967,229.89455 c 0,0 6.60067,1.02622 6.13906,-6.09089"
         id="path9-60-8-1-2" />
      <path
         style="fill:none;fill-opacity:1;stroke:#000000;stroke-width:1.29262;stroke-dasharray:none;stroke-opacity:1"
         d="m 130.88981,235.45416 c 0,0 6.65809,0.64205 7.70205,-7.63408"
         id="path9-5-4-3-2" />
      <path
         style="fill:none;fill-opacity:1;stroke:#000000;stroke-width:1.29262;stroke-dasharray:none;stroke-opacity:1"
         d="m 154.5281,225.45813 c 0,0 0.10553,-6.41411 -7.92431,-4.69928"
         id="path9-37-1-2-1" />
      <path
         style="fill:none;fill-opacity:1;stroke:#000000;stroke-width:1.29262;stroke-dasharray:none;stroke-opacity:1"
         d="m 155.30739,220.62998 c 0,0 -1.73391,-7.39404 -7.42069,-6.82674"
         id="path9-13-4-6-6" />
      <path
         style="fill:none;fill-opacity:1;stroke:#000000;stroke-width:1.29262;stroke-dasharray:none;stroke-opacity:1"
         d="m 157.82892,217.82757 c 0,0 0.92201,-10.39712 -6.76495,-9.67128"
         id="path9-0-3-0-8" />
      <path
         style="fill:none;fill-opacity:1;stroke:#000000;stroke-width:1.29262;stroke-dasharray:none;stroke-opacity:1"
         d="m 145.36437,243.77438 c 0,0 8.58291,-12.09575 -0.88305,-16.51619"
         id="path9-44-9-5-5" />
      <path
         style="fill:none;fill-opacity:1;stroke:#000000;stroke-width:1.29262;stroke-dasharray:none;stroke-opacity:1"
         d="m 154.58918,234.86845 c 0,0 1.51335,-11.23756 -8.64955,-9.18509"
         id="path9-1-8-7-7" />
      <path
         style="fill:none;fill-opacity:1;stroke:#000000;stroke-width:1.29262;stroke-dasharray:none;stroke-opacity:1"
         d="m 134.93111,240.44004 c 0,0 10.06444,-0.1924 7.41289,-12.23538"
         id="path9-61-80-4-6" />
    </g>
  </g>
  <g
     id="layer4"
     transform="translate(-69.25525,-195.26098)">
    <g
       id="g2"
       transform="matrix(1.968216,0,0,1.968216,-66.998865,-46.638967)">
      <path
         style="fill:none;fill-opacity:1;stroke:#000000;stroke-width:0.791607;stroke-dasharray:none;stroke-opacity:1"
         d="m 73.576571,145.4223 c 0,0 3.710947,0.52492 4.296506,-2.62324"
         id="path9-601-12-8-1" />
      <ellipse
         style="fill:#000000;fill-opacity:1;stroke:#000000;stroke-width:0.767212;stroke-dasharray:none;stroke-opacity:1"
         id="path10-8-4-1"
         cx="79.31855"
         cy="134.85507"
         rx="1.4079365"
         ry="1.4902967" />
    </g>
  </g>
  <g
     id="layer5"
     transform="translate(-69.25525,-195.26098)">
    <path
       style="fill:none;fill-opacity:1;stroke:#000000;stroke-width:3.93248;stroke-dasharray:none;stroke-opacity:1"
       d="m 114.5463,248.14658 c -1.96814,-8.00121 -12.31645,-11.25674 -19.62741,-7.13677 -5.776653,3.36943 -15.116828,5.95458 -18.971799,-1.72108 -5.942692,-12.22727 -0.760645,-29.23764 11.101734,-35.12729 9.215256,-5.18938 21.133765,-6.58661 30.784125,-1.7971 10.40261,5.09052 18.73412,15.57548 19.40152,28.01179 0.82773,10.80891 -0.58102,22.96133 5.96994,32.14559 5.90901,8.41555 18.71383,5.29702 22.53597,-3.64352 3.18674,-8.55713 0.97153,-16.63386 3.2285,-25.48054 2.53977,-8.00802 9.01235,-15.17731 17.49827,-13.47606 8.33609,3.41932 13.53883,11.59448 12.84751,20.89293 0.65349,8.27731 1.19132,19.04294 9.50997,22.88045 6.65086,3.11379 15.61323,-0.17832 16.31486,-8.69086 1.43685,-9.52522 1.54461,-19.96808 7.80214,-27.68439 4.64047,-6.32008 13.17646,-8.0564 19.9051,-5.40132 9.02675,4.8117 12.00405,14.06052 3.37717,18.61537 -5.83862,2.98631 -14.84789,8.15333 -15.11923,14.84287 -0.95531,9.82421 3.63335,21.01663 -3.14464,29.53875 -5.35916,7.41787 -14.7228,13.20137 -23.78284,11.15803 -6.77983,-1.17998 -18.79693,-8.17788 -21.90888,-20.83158 -2.04594,-9.36516 -8.18343,-19.79435 -15.96873,-8.93924 -7.01621,8.38978 -4.49664,19.70515 -16.49205,28.21595 -8.03239,4.7399 -16.84118,4.9933 -25.27837,-2.80498 -6.56483,-7.86291 -7.05814,-8.31017 -11.67336,-20.20787 -1.89436,-5.70069 -6.42753,-17.14992 -8.3095,-23.35913 z"
       id="path8-8-6-7" />
  </g>
</svg>
