<svg width="527" height="480" viewBox="0 0 527 480" fill="none" xmlns="http://www.w3.org/2000/svg">
<path d="M123.375 255.968C118.062 236.507 92.5326 229.18 74.894 239.717C60.9639 248.321 38.2635 255.228 28.3528 236.677C13.0512 207.118 24.682 165.164 53.3484 150.014C75.5808 136.74 104.666 132.581 128.583 143.706C154.359 155.521 175.401 180.667 177.804 211.064C180.499 237.469 177.804 267.3 194.408 289.373C209.392 309.604 240.539 301.179 249.34 279.059C256.61 257.918 250.685 238.286 255.664 216.494C261.384 196.736 276.782 178.788 297.657 182.426C318.271 190.278 331.512 209.966 330.396 232.767C332.508 252.986 334.493 279.302 355.096 288.176C371.568 295.385 393.299 286.758 394.489 265.893C397.417 242.49 397.031 216.924 411.87 197.651C422.837 181.894 443.621 177.116 460.254 183.198C482.646 194.415 490.506 216.868 469.674 228.55C455.569 236.223 433.838 249.428 433.588 265.816C431.861 289.92 443.783 317.03 427.721 338.308C415.064 356.796 392.504 371.532 370.202 367.09C353.534 364.623 323.688 348.238 315.288 317.46C309.699 294.666 294.033 269.519 275.649 296.57C258.997 317.539 265.865 345.078 237.033 366.652C217.666 378.75 196.123 379.919 174.988 361.352C158.433 342.515 157.198 341.45 145.165 312.616C140.177 298.78 128.369 271.047 123.375 255.968Z" fill="url(#paint0_linear_532_50)" stroke="black" stroke-width="3.6157"/>
<defs>
<linearGradient id="paint0_linear_532_50" x1="195.21" y1="86.4597" x2="331.063" y2="393.191" gradientUnits="userSpaceOnUse">
<stop stop-color="#AAAAFF"/>
<stop offset="1" stop-color="#666699"/>
</linearGradient>
</defs>
</svg>
